<svg xmlns="http://www.w3.org/2000/svg" width="1024" height="1024" viewBox="0 0 1024 1024"><defs>
<linearGradient id="w_black" x1="0.1" y1="0" x2="0.9" y2="1"><stop offset="0" stop-color="#26272D"></stop><stop offset="0.6" stop-color="#141519"></stop><stop offset="1" stop-color="#08080A"></stop></linearGradient>
<radialGradient id="w_amb" cx="0.5" cy="0.5" r="0.55"><stop offset="0" stop-color="#7C5CF0" stop-opacity="0.42"></stop><stop offset="1" stop-color="#7C5CF0" stop-opacity="0"></stop></radialGradient>
<linearGradient id="w_face" x1="0" y1="0" x2="1" y2="0"><stop offset="0" stop-color="#F6F4EE"></stop><stop offset="1" stop-color="#D6D1E1"></stop></linearGradient>
<linearGradient id="w_roof" x1="0" y1="0" x2="1" y2="1"><stop offset="0" stop-color="#A48CFF"></stop><stop offset="1" stop-color="#6D4DE6"></stop></linearGradient>
<radialGradient id="w_glow" cx="0.5" cy="0.35" r="0.75"><stop offset="0" stop-color="#E4D8FF"></stop><stop offset="0.5" stop-color="#9E86F5"></stop><stop offset="1" stop-color="#6E4EE6"></stop></radialGradient>
<linearGradient id="lh_beamL" x1="1" y1="0" x2="0" y2="0"><stop offset="0" stop-color="#B39BFF" stop-opacity="0.5"></stop><stop offset="1" stop-color="#B39BFF" stop-opacity="0"></stop></linearGradient>
<linearGradient id="lh_beamR" x1="0" y1="0" x2="1" y2="0"><stop offset="0" stop-color="#B39BFF" stop-opacity="0.5"></stop><stop offset="1" stop-color="#B39BFF" stop-opacity="0"></stop></linearGradient>
<radialGradient id="lh_lamp" cx="0.5" cy="0.5" r="0.5"><stop offset="0" stop-color="#FBF7FF"></stop><stop offset="0.5" stop-color="#CDBBFF"></stop><stop offset="1" stop-color="#8A6EF0" stop-opacity="0"></stop></radialGradient>
<linearGradient id="w_kgloss" x1="0" y1="0" x2="0" y2="1"><stop offset="0" stop-color="#ffffff" stop-opacity="0.06"></stop><stop offset="0.4" stop-color="#ffffff" stop-opacity="0"></stop></linearGradient>
<linearGradient id="g_rim" x1="0" y1="0" x2="0" y2="1"><stop offset="0" stop-color="#ffffff" stop-opacity="0.20"></stop><stop offset="0.22" stop-color="#ffffff" stop-opacity="0.02"></stop><stop offset="1" stop-color="#ffffff" stop-opacity="0"></stop></linearGradient>
<clipPath id="tile"><rect x="100" y="100" width="824" height="824" rx="185"></rect></clipPath>
<filter id="ds" x="-25%" y="-25%" width="150%" height="150%"><feDropShadow dx="0" dy="22" stdDeviation="28" flood-color="#000000" flood-opacity="0.36"></feDropShadow></filter></defs>
<g filter="url(#ds)"><g clip-path="url(#tile)"><g transform="translate(100 100) scale(3.433333333333333)"><rect x="0" y="0" width="240" height="240" fill="url(#w_black)"></rect>
<g transform="translate(0 20) translate(120 84) scale(1.42) translate(-120 -84)">
<ellipse cx="120" cy="128" rx="94" ry="90" fill="url(#w_amb)"></ellipse>
<path d="M118 82 L14 44 L14 98 Z" fill="url(#lh_beamL)"></path>
<path d="M122 82 L226 44 L226 98 Z" fill="url(#lh_beamR)"></path>
<path d="M84 240 L101 108 H139 L156 240 Z" fill="url(#w_face)"></path>
<path d="M120 108 H139 L156 240 H120 Z" fill="#B7B1C8" opacity="0.55"></path>
<path d="M101 108 H109 L98 240 H84 Z" fill="#FFFFFF" opacity="0.30"></path>
<path d="M95.2 150 H144.8 L147 168 H93 Z" fill="#6D4DE6"></path>
<rect x="113" y="200" width="14" height="40" rx="7" fill="url(#w_glow)"></rect>
<rect x="88" y="99" width="64" height="10" rx="3" fill="url(#w_face)"></rect>
<rect x="88" y="107" width="64" height="4" fill="#9A94AC" opacity="0.6"></rect>
<g stroke="#EDEAF4" stroke-width="3" stroke-linecap="round"><path d="M96 99 V92"></path><path d="M120 99 V90"></path><path d="M144 99 V92"></path><path d="M94 92 H146"></path></g>
<rect x="101" y="69" width="38" height="30" rx="2" fill="url(#w_glow)"></rect>
<ellipse cx="120" cy="84" rx="17" ry="15" fill="url(#lh_lamp)"></ellipse>
<g stroke="#EFEAFB" stroke-width="2" opacity="0.8"><path d="M112 69 V99"></path><path d="M128 69 V99"></path><path d="M101 84 H139"></path></g>
<rect x="100" y="68" width="40" height="31" rx="2" fill="none" stroke="url(#w_face)" stroke-width="3"></rect>
<rect x="94" y="60" width="52" height="8" rx="3" fill="url(#w_face)"></rect>
<path d="M96 62 Q120 40 144 62 Z" fill="url(#w_roof)"></path>
<path d="M120 43 Q133 51 144 62 L120 62 Z" fill="#5B3FD0" opacity="0.45"></path>
<path d="M120 44 V37" stroke="#EDEAF4" stroke-width="3" stroke-linecap="round"></path>
<circle cx="120" cy="35" r="3.2" fill="#EDEAF4"></circle></g>
<rect x="0" y="0" width="240" height="240" fill="url(#w_kgloss)"></rect></g></g></g></svg>